HIERARCHY
ROOT Hips
{
	OFFSET 0.000000 71.427986 0.000000
	CHANNELS 6 Xposition Yposition Zposition Xrotation Yrotation Zrotation
	JOINT Pelvis
	{
		OFFSET 0.000000 0.000000 0.000000
		CHANNELS 3 Xrotation Yrotation Zrotation
		JOINT LeftUpLeg
		{
			OFFSET 6.797100 -2.508499 -1.318700
			CHANNELS 3 Xrotation Yrotation Zrotation
			JOINT LeftLeg
			{
				OFFSET 0.069008 -29.241863 0.690200
				CHANNELS 3 Xrotation Yrotation Zrotation
				JOINT LeftFoot
				{
					OFFSET -0.069008 -29.568123 -0.266800
					CHANNELS 3 Xrotation Yrotation Zrotation
					JOINT LeftToeBase
					{
						OFFSET 3.145500 -8.631000 16.059900
						CHANNELS 3 Xrotation Yrotation Zrotation
						End Site
						{
							OFFSET 0.000000 18.501587 0.000000
						}
					}
				}
			}
			JOINT Left_ShortSleeve
			{
				OFFSET 0.265923 -10.480953 1.153800
				CHANNELS 3 Xrotation Yrotation Zrotation
				End Site
				{
					OFFSET 1.725763 19.823879 0.000000
				}
			}
		}
		JOINT RightUpLeg
		{
			OFFSET -6.797100 -2.508499 -1.318700
			CHANNELS 3 Xrotation Yrotation Zrotation
			JOINT RightLeg
			{
				OFFSET -0.082453 -29.241932 0.688000
				CHANNELS 3 Xrotation Yrotation Zrotation
				JOINT RightFoot
				{
					OFFSET 0.082453 -29.568058 -0.264600
					CHANNELS 3 Xrotation Yrotation Zrotation
					JOINT RightToeBase
					{
						OFFSET -3.115300 -8.682800 16.113400
						CHANNELS 3 Xrotation Yrotation Zrotation
						End Site
						{
							OFFSET 0.000000 18.567114 0.000000
						}
					}
				}
			}
			JOINT Right_ShortSleeve
			{
				OFFSET -0.265923 -10.480953 1.153800
				CHANNELS 3 Xrotation Yrotation Zrotation
				End Site
				{
					OFFSET -1.725766 19.823910 0.000000
				}
			}
		}
	}
	JOINT Spine
	{
		OFFSET 0.000000 13.368103 0.470500
		CHANNELS 3 Xrotation Yrotation Zrotation
		JOINT Spine1
		{
			OFFSET 0.147000 13.837402 0.538800
			CHANNELS 3 Xrotation Yrotation Zrotation
			JOINT Spine2
			{
				OFFSET 0.168000 16.242897 -1.435500
				CHANNELS 3 Xrotation Yrotation Zrotation
				JOINT Neck
				{
					OFFSET 0.217200 18.631500 -1.679100
					CHANNELS 3 Xrotation Yrotation Zrotation
					JOINT Head
					{
						OFFSET 0.000000 6.599396 1.385900
						CHANNELS 3 Xrotation Yrotation Zrotation
						JOINT Hat
						{
							OFFSET -0.532200 27.220596 -10.096100
							CHANNELS 3 Xrotation Yrotation Zrotation
							End Site
							{
								OFFSET 0.000000 22.029861 0.000000
							}
						}
						JOINT HairD
						{
							OFFSET -10.777400 17.437393 -1.325900
							CHANNELS 3 Xrotation Yrotation Zrotation
							JOINT HairD1
							{
								OFFSET -3.290299 -11.051193 1.062200
								CHANNELS 3 Xrotation Yrotation Zrotation
								End Site
								{
									OFFSET 0.000000 11.579437 0.000000
								}
							}
						}
						JOINT HairB
						{
							OFFSET -10.777400 17.437393 1.467900
							CHANNELS 3 Xrotation Yrotation Zrotation
							JOINT HairB1
							{
								OFFSET -1.561200 -12.956299 3.590200
								CHANNELS 3 Xrotation Yrotation Zrotation
								End Site
								{
									OFFSET 0.000000 13.534866 0.000000
								}
							}
						}
						JOINT HairA
						{
							OFFSET 9.713100 17.437393 1.467900
							CHANNELS 3 Xrotation Yrotation Zrotation
							JOINT HairA1
							{
								OFFSET 1.561200 -12.956299 3.590200
								CHANNELS 3 Xrotation Yrotation Zrotation
								End Site
								{
									OFFSET 0.000000 13.534866 0.000000
								}
							}
						}
						JOINT HairC
						{
							OFFSET 9.713100 17.437393 -1.325900
							CHANNELS 3 Xrotation Yrotation Zrotation
							JOINT HairC1
							{
								OFFSET 3.290300 -11.051193 1.062200
								CHANNELS 3 Xrotation Yrotation Zrotation
								End Site
								{
									OFFSET 0.000000 11.579437 0.000000
								}
							}
						}
					}
				}
				JOINT LeftShoulder
				{
					OFFSET 5.101800 15.108002 -2.763700
					CHANNELS 3 Xrotation Yrotation Zrotation
					JOINT LeftArm
					{
						OFFSET 9.825497 2.506317 -1.597400
						CHANNELS 3 Xrotation Yrotation Zrotation
						JOINT LeftForeArm
						{
							OFFSET 21.966244 0.000000 0.000000
							CHANNELS 3 Xrotation Yrotation Zrotation
							JOINT LeftHand
							{
								OFFSET 33.879036 0.000000 0.000000
								CHANNELS 3 Xrotation Yrotation Zrotation
								JOINT LeftHandThumb1
								{
									OFFSET 6.715286 -2.359680 3.363841
									CHANNELS 3 Xrotation Yrotation Zrotation
									JOINT LeftHandThumb2
									{
										OFFSET 2.507072 -1.447464 1.447461
										CHANNELS 3 Xrotation Yrotation Zrotation
										JOINT LeftHandThumb3
										{
											OFFSET 2.898338 -1.673355 1.673357
											CHANNELS 3 Xrotation Yrotation Zrotation
											End Site
											{
												OFFSET -0.295959 3.727692 -0.131651
											}
										}
									}
								}
								JOINT LeftHandIndex1
								{
									OFFSET 14.190811 -0.254547 3.840278
									CHANNELS 3 Xrotation Yrotation Zrotation
									JOINT LeftHandIndex2
									{
										OFFSET 3.551727 0.000000 -0.000000
										CHANNELS 3 Xrotation Yrotation Zrotation
										JOINT LeftHandIndex3
										{
											OFFSET 2.894196 0.000000 0.000000
											CHANNELS 3 Xrotation Yrotation Zrotation
											End Site
											{
												OFFSET -1.000603 2.690872 0.366626
											}
										}
									}
								}
								JOINT LeftHandMiddle1
								{
									OFFSET 13.776489 0.000000 0.000000
									CHANNELS 3 Xrotation Yrotation Zrotation
									JOINT LeftHandMiddle2
									{
										OFFSET 3.438232 0.000000 0.000000
										CHANNELS 3 Xrotation Yrotation Zrotation
										JOINT LeftHandMiddle3
										{
											OFFSET 3.691551 0.000000 0.000000
											CHANNELS 3 Xrotation Yrotation Zrotation
											End Site
											{
												OFFSET -1.082298 3.499527 0.457670
											}
										}
									}
								}
								JOINT LeftHandRing1
								{
									OFFSET 13.966164 -0.268127 -3.067488
									CHANNELS 3 Xrotation Yrotation Zrotation
									JOINT LeftHandRing2
									{
										OFFSET 3.162567 0.000000 0.000000
										CHANNELS 3 Xrotation Yrotation Zrotation
										JOINT LeftHandRing3
										{
											OFFSET 3.324348 0.000000 0.000000
											CHANNELS 3 Xrotation Yrotation Zrotation
											End Site
											{
												OFFSET -0.861900 3.184998 0.405154
											}
										}
									}
								}
								JOINT LeftHandPinky1
								{
									OFFSET 13.131393 -0.168503 -5.746925
									CHANNELS 3 Xrotation Yrotation Zrotation
									JOINT LeftHandPinky2
									{
										OFFSET 2.849182 0.000000 0.000000
										CHANNELS 3 Xrotation Yrotation Zrotation
										JOINT LeftHandPinky3
										{
											OFFSET 2.805038 0.000000 0.000000
											CHANNELS 3 Xrotation Yrotation Zrotation
											End Site
											{
												OFFSET -0.882500 2.642609 0.325652
											}
										}
									}
								}
							}
							JOINT Left_Sleeve
							{
								OFFSET 6.592125 -0.646545 0.805568
								CHANNELS 3 Xrotation Yrotation Zrotation
								End Site
								{
									OFFSET -0.000179 20.275787 -0.000000
								}
							}
						}
					}
				}
				JOINT RightShoulder
				{
					OFFSET -5.731700 15.108002 -2.763700
					CHANNELS 3 Xrotation Yrotation Zrotation
					JOINT RightArm
					{
						OFFSET -9.825497 2.506317 -1.597400
						CHANNELS 3 Xrotation Yrotation Zrotation
						JOINT RightForeArm
						{
							OFFSET -21.966242 0.000000 0.000000
							CHANNELS 3 Xrotation Yrotation Zrotation
							JOINT RightHand
							{
								OFFSET -33.879032 0.000000 0.000000
								CHANNELS 3 Xrotation Yrotation Zrotation
								JOINT RightHandThumb1
								{
									OFFSET -6.715286 -2.359680 3.363841
									CHANNELS 3 Xrotation Yrotation Zrotation
									JOINT RightHandThumb2
									{
										OFFSET -2.507072 -1.447464 1.447461
										CHANNELS 3 Xrotation Yrotation Zrotation
										JOINT RightHandThumb3
										{
											OFFSET -2.898338 -1.673355 1.673357
											CHANNELS 3 Xrotation Yrotation Zrotation
											End Site
											{
												OFFSET 0.295959 3.727692 -0.131651
											}
										}
									}
								}
								JOINT RightHandIndex1
								{
									OFFSET -14.190811 -0.254547 3.840278
									CHANNELS 3 Xrotation Yrotation Zrotation
									JOINT RightHandIndex2
									{
										OFFSET -3.551727 0.000000 -0.000000
										CHANNELS 3 Xrotation Yrotation Zrotation
										JOINT RightHandIndex3
										{
											OFFSET -2.894196 0.000000 0.000000
											CHANNELS 3 Xrotation Yrotation Zrotation
											End Site
											{
												OFFSET 1.000603 2.690872 0.366626
											}
										}
									}
								}
								JOINT RightHandMiddle1
								{
									OFFSET -13.776489 0.000000 0.000000
									CHANNELS 3 Xrotation Yrotation Zrotation
									JOINT RightHandMiddle2
									{
										OFFSET -3.438232 0.000000 0.000000
										CHANNELS 3 Xrotation Yrotation Zrotation
										JOINT RightHandMiddle3
										{
											OFFSET -3.691551 0.000000 0.000000
											CHANNELS 3 Xrotation Yrotation Zrotation
											End Site
											{
												OFFSET 1.082298 3.499527 0.457670
											}
										}
									}
								}
								JOINT RightHandRing1
								{
									OFFSET -13.966164 -0.268127 -3.067488
									CHANNELS 3 Xrotation Yrotation Zrotation
									JOINT RightHandRing2
									{
										OFFSET -3.162567 0.000000 0.000000
										CHANNELS 3 Xrotation Yrotation Zrotation
										JOINT RightHandRing3
										{
											OFFSET -3.324348 0.000000 0.000000
											CHANNELS 3 Xrotation Yrotation Zrotation
											End Site
											{
												OFFSET 0.861900 3.184998 0.405154
											}
										}
									}
								}
								JOINT RightHandPinky1
								{
									OFFSET -13.131393 -0.168503 -5.746925
									CHANNELS 3 Xrotation Yrotation Zrotation
									JOINT RightHandPinky2
									{
										OFFSET -2.849182 0.000000 0.000000
										CHANNELS 3 Xrotation Yrotation Zrotation
										JOINT RightHandPinky3
										{
											OFFSET -2.805038 0.000000 0.000000
											CHANNELS 3 Xrotation Yrotation Zrotation
											End Site
											{
												OFFSET 0.882500 2.642609 0.325652
											}
										}
									}
								}
							}
							JOINT Right_Sleeve
							{
								OFFSET -6.592125 -0.646545 0.805568
								CHANNELS 3 Xrotation Yrotation Zrotation
								End Site
								{
									OFFSET 0.000179 20.275787 -0.000000
								}
							}
						}
					}
				}
				JOINT Bind_Right_JacketString
				{
					OFFSET -3.534800 11.969597 7.200700
					CHANNELS 3 Xrotation Yrotation Zrotation
					JOINT Bind_Right_JacketString1
					{
						OFFSET -0.319900 -6.102600 2.794100
						CHANNELS 3 Xrotation Yrotation Zrotation
						End Site
						{
							OFFSET 0.000000 6.719452 0.000000
						}
					}
				}
				JOINT Bind_Left_JacketString
				{
					OFFSET 2.904800 11.969597 7.200700
					CHANNELS 3 Xrotation Yrotation Zrotation
					JOINT Bind_Left_JacketString1
					{
						OFFSET 0.364800 -5.904503 3.186800
						CHANNELS 3 Xrotation Yrotation Zrotation
						End Site
						{
							OFFSET 0.000000 6.719513 0.000000
						}
					}
				}
				JOINT HairE
				{
					OFFSET 5.915200 17.612701 -11.592200
					CHANNELS 3 Xrotation Yrotation Zrotation
					JOINT HairE1
					{
						OFFSET 0.289200 -7.171898 -1.284500
						CHANNELS 3 Xrotation Yrotation Zrotation
						End Site
						{
							OFFSET 0.000000 7.291756 0.000000
						}
					}
				}
				JOINT HairF
				{
					OFFSET -0.864800 17.612701 -11.592200
					CHANNELS 3 Xrotation Yrotation Zrotation
					JOINT HairF1
					{
						OFFSET 0.000000 -14.087097 -2.127501
						CHANNELS 3 Xrotation Yrotation Zrotation
						End Site
						{
							OFFSET 0.000000 14.246841 0.000000
						}
					}
				}
				JOINT HairG
				{
					OFFSET -8.087700 17.612701 -11.592200
					CHANNELS 3 Xrotation Yrotation Zrotation
					JOINT HairG1
					{
						OFFSET -0.293600 -6.081398 -0.910100
						CHANNELS 3 Xrotation Yrotation Zrotation
						End Site
						{
							OFFSET 0.000000 6.156120 0.000000
						}
					}
				}
			}
		}
	}
	JOINT Pouch
	{
		OFFSET 0.000000 4.394501 10.847300
		CHANNELS 3 Xrotation Yrotation Zrotation
		End Site
		{
			OFFSET 0.000000 21.880577 0.000000
		}
	}
	JOINT Bag
	{
		OFFSET -13.229000 4.813004 -0.593300
		CHANNELS 3 Xrotation Yrotation Zrotation
		End Site
		{
			OFFSET 0.000000 21.880577 0.000000
		}
	}
	JOINT OccupyGuyFacialAnim_Joint
	{
		OFFSET 1.000000 -70.206398 -1.655000
		CHANNELS 3 Xrotation Yrotation Zrotation
		End Site
		{
			OFFSET 0.000000 21.880577 0.000000
		}
	}
}
MOTION
Frames: 4
Frame Time: 0.033333
-0.206787 69.927002 1.283645 -7.176403 -4.189235 2.829192 -0.000000 0.000000 0.000000 -5.713391 12.015380 4.329788 10.139851 7.553878 1.491154 3.823720 0.161688 -5.840647 0.000000 -0.000000 0.000000 0.000001 0.000000 -0.000000 4.115909 -16.005886 -4.977739 21.789478 -9.151838 -3.370125 -18.801784 -5.644963 7.211131 0.000000 -0.000000 -0.000000 -0.000000 -0.000001 -0.000001 5.341682 2.060592 -1.923406 1.489202 0.738295 -0.705218 1.483381 0.741537 -0.678887 2.305144 5.360283 1.627124 3.300906 -10.638690 2.511397 0.000000 -0.000000 -0.000000 0.000000 -0.000000 -0.000000 0.000000 -0.000000 -0.000000 0.000000 -0.000000 -0.000000 0.000000 0.000000 -0.000000 0.000000 -0.000000 -0.000000 0.000000 0.000000 -0.000000 0.000000 -0.000000 -0.000000 0.000000 -0.000000 -0.000000 -0.572344 -16.340084 -20.041911 11.020232 0.132433 -33.902306 -0.001502 -88.792288 -0.001586 -131.311848 -7.197563 10.440776 -12.800114 -17.470128 4.121639 1.000141 0.731307 -1.438311 0.000000 0.000001 -0.000003 -3.532546 4.254378 -63.954586 3.402075 5.315505 -65.218936 0.000000 0.000001 0.000000 2.434399 7.296052 -69.364095 3.297864 5.266347 -64.088621 -0.000000 0.000001 0.000001 4.717011 8.075471 -77.582261 2.056284 4.456888 -49.517680 0.000001 0.000000 -0.000002 6.403985 8.362682 -80.414290 1.722715 4.149908 -45.074396 0.000001 -0.000000 0.000001 -0.000002 0.000000 0.000002 0.754309 18.436743 11.542206 10.691750 23.557094 38.362195 0.000053 97.831518 -0.000025 -34.546902 -20.180666 22.179144 20.470581 7.475562 18.843589 4.151725 -12.160910 -33.847986 -0.000001 0.000001 -0.000000 -0.887048 1.427993 12.684524 1.917385 -3.767436 53.934326 0.000002 -0.000000 0.000002 0.770921 -5.199595 54.618823 5.563869 -4.568229 101.238587 0.000001 -0.000001 0.000003 6.934466 -8.544251 63.908769 2.909295 -4.317416 67.934701 -0.000001 -0.000000 0.000001 8.373414 -8.171771 73.989923 2.173680 -3.940957 57.745390 0.000001 0.000001 0.000001 0.000001 0.000000 0.000001 -0.000000 0.000000 0.000000 0.000000 -0.000000 0.000000 -0.000000 0.000000 0.000000 -0.000000 0.000000 0.000000 -0.000000 0.000000 0.000000 0.000000 -0.000000 0.000000 -0.000000 0.000000 0.000000 -0.000000 0.000000 0.000000 -0.000000 0.000000 0.000000 0.000000 -0.000000 0.000000 -0.000000 0.000000 0.000000 -0.000000 0.000000 0.000000 -0.000000 0.000000 0.000000 
0.565704 69.808586 1.231284 -5.274628 -5.856127 1.690028 0.000001 0.000000 -0.000000 -10.182684 13.614960 5.742559 14.863168 5.525268 1.501179 1.302160 2.170919 -5.522259 0.000000 0.000000 0.000000 -0.000002 0.000001 0.000000 1.753747 -16.289286 -5.039642 25.917225 -6.960895 -3.365309 -20.369067 -5.402525 5.995058 -0.000000 0.000002 0.000000 -0.000000 -0.000001 -0.000000 6.273606 1.160740 -1.298226 1.505856 0.486402 -0.657841 1.504256 0.444884 -0.585770 2.060194 6.181728 1.153147 -0.129813 -8.461611 2.051164 0.000000 0.000000 -0.000000 0.000000 0.000000 -0.000000 0.000000 0.000000 0.000000 0.000000 0.000000 0.000000 0.000000 0.000000 0.000000 0.000000 0.000000 0.000000 0.000000 0.000000 0.000000 0.000000 0.000000 -0.000000 0.000000 0.000000 -0.000000 -0.327160 -16.479942 -19.015067 7.670437 -1.261032 -32.357833 0.005193 -88.733255 0.004798 -132.090640 -6.943665 11.075192 -11.914264 -16.981768 3.825964 1.000144 0.731307 -1.438313 -0.000000 -0.000000 0.000001 -3.544484 4.118158 -63.088115 3.449438 5.337021 -65.729103 0.000002 0.000000 -0.000002 2.376035 7.254663 -68.684553 3.357748 5.294910 -64.739265 0.000001 0.000001 0.000001 4.634581 8.057712 -76.755603 2.158716 4.542051 -50.823093 -0.000002 -0.000000 0.000001 6.322184 8.368669 -79.634630 1.817185 4.241757 -46.365500 0.000001 0.000000 0.000003 0.000004 -0.000002 0.000001 0.780760 19.010730 10.592298 8.354554 23.524724 39.249487 -0.000215 98.832783 0.000213 -34.971422 -19.592946 19.777137 20.470582 7.475560 18.843587 4.151723 -12.160911 -33.847983 -0.000001 -0.000002 -0.000003 -0.887046 1.427994 12.684523 1.917384 -3.767437 53.934326 -0.000002 -0.000001 0.000005 0.770921 -5.199595 54.618827 5.563868 -4.568233 101.238580 0.000001 0.000001 -0.000002 6.934467 -8.544251 63.908755 2.909296 -4.317414 67.934701 0.000001 -0.000001 0.000001 8.373414 -8.171771 73.989923 2.173679 -3.940958 57.745397 -0.000001 0.000001 0.000001 0.000004 -0.000001 -0.000001 0.000000 0.000000 0.000000 0.000001 0.000000 0.000000 0.000000 0.000000 0.000000 0.000000 0.000000 0.000000 0.000000 0.000000 0.000000 0.000001 0.000000 0.000000 0.000000 0.000000 0.000000 0.000000 0.000000 0.000000 0.000000 0.000000 0.000000 0.000001 0.000000 0.000000 0.000001 0.000000 -0.000000 0.000001 0.000000 -0.000000 0.000001 0.000000 -0.000000 
1.339123 69.703979 1.187685 -3.372441 -7.629104 0.572518 0.000000 0.000000 0.000000 -14.210241 15.586425 7.329648 18.404329 2.878134 1.514213 -0.656607 4.399119 -4.923909 0.000000 0.000002 -0.000000 -0.000001 -0.000001 0.000000 -0.208907 -16.692199 -5.094081 29.090247 -4.758089 -3.356316 -21.327558 -5.006882 4.716067 -0.000000 -0.000001 0.000000 0.000000 -0.000001 -0.000001 7.214387 0.266406 -0.639673 1.522847 0.234655 -0.613104 1.525640 0.149675 -0.493127 1.804809 7.016410 0.689835 -3.626594 -6.190106 1.605511 0.000000 0.000000 0.000000 0.000000 0.000000 0.000000 0.000000 0.000000 0.000000 0.000000 0.000000 0.000000 -0.000000 0.000000 -0.000000 0.000000 0.000000 0.000000 -0.000000 0.000000 -0.000000 0.000000 0.000000 0.000000 0.000000 0.000000 0.000000 -0.073159 -16.640701 -17.947329 4.617859 -2.460483 -31.066654 0.002263 -88.734819 0.002205 -132.965109 -6.828949 11.531613 -11.035126 -16.496589 3.515037 1.000143 0.731307 -1.438320 0.000001 -0.000000 -0.000003 -3.554510 3.981959 -62.221787 3.496976 5.358105 -66.239304 0.000003 0.000000 0.000002 2.318169 7.212557 -68.005120 3.417947 5.322786 -65.389923 0.000002 0.000000 0.000002 4.552414 8.038735 -75.928973 2.263062 4.624841 -52.128844 -0.000000 0.000000 0.000002 6.240302 8.373517 -78.854910 1.913725 4.331492 -47.656900 -0.000003 -0.000001 -0.000001 0.000001 0.000000 -0.000003 0.764584 19.700864 9.991023 6.269123 23.245700 39.822906 0.000111 99.964408 -0.000138 -35.281530 -19.256888 17.566905 20.470582 7.475556 18.843587 4.151726 -12.160910 -33.847979 -0.000001 -0.000001 -0.000002 -0.887044 1.427991 12.684525 1.917384 -3.767437 53.934326 0.000000 -0.000000 0.000000 0.770923 -5.199595 54.618827 5.563865 -4.568229 101.238580 0.000000 -0.000001 0.000001 6.934469 -8.544254 63.908769 2.909294 -4.317411 67.934701 -0.000004 -0.000001 -0.000002 8.373415 -8.171774 73.989930 2.173678 -3.940957 57.745384 -0.000001 0.000001 0.000001 0.000001 -0.000002 -0.000002 0.000001 -0.000000 -0.000000 0.000001 -0.000000 -0.000000 0.000001 -0.000000 -0.000000 0.000001 -0.000000 -0.000000 0.000001 -0.000000 -0.000000 0.000001 -0.000000 -0.000000 0.000001 -0.000000 -0.000000 0.000001 -0.000000 -0.000000 0.000001 -0.000000 -0.000000 0.000001 -0.000000 -0.000000 0.000000 0.000000 0.000000 0.000000 0.000000 0.000000 0.000000 0.000000 0.000000 
2.105277 69.595459 1.138160 -1.504685 -9.407726 -0.475289 -0.000000 -0.000000 0.000000 -18.083797 17.521063 9.046728 21.396013 0.079865 1.528343 -2.344552 6.664986 -4.126770 -0.000000 0.000000 -0.000000 0.000001 -0.000000 -0.000000 -1.825718 -17.030575 -5.131490 31.738359 -2.746252 -3.326411 -21.909159 -4.565771 3.371304 0.000000 -0.000000 -0.000000 0.000000 0.000001 -0.000001 8.180635 -0.626965 -0.000355 1.540134 -0.017119 -0.566805 1.547507 -0.146264 -0.400270 1.576779 7.843589 0.218602 -7.041948 -3.973430 1.246471 -0.000000 -0.000000 -0.000000 -0.000000 -0.000000 -0.000000 -0.000000 -0.000000 0.000000 -0.000000 -0.000000 -0.000000 -0.000000 0.000000 -0.000000 -0.000000 -0.000000 -0.000000 -0.000000 0.000000 -0.000000 -0.000000 -0.000000 -0.000000 -0.000000 -0.000000 -0.000000 0.189871 -16.816631 -16.848991 1.423015 -3.630537 -29.746218 0.004523 -88.780930 0.004775 -133.757685 -6.633919 12.265357 -10.162501 -16.014844 3.189044 1.000143 0.731307 -1.438312 0.000000 0.000001 -0.000003 -3.562574 3.845899 -61.355548 3.544731 5.378759 -66.749560 0.000002 0.000003 -0.000001 2.260821 7.169797 -67.325776 3.478451 5.349963 -66.040669 0.000001 0.000000 -0.000001 4.470546 8.018633 -75.102424 2.369290 4.705253 -53.434882 0.000004 0.000000 -0.000002 6.158353 8.377280 -78.075230 2.012267 4.419022 -48.948588 -0.000001 -0.000002 0.000001 0.000002 -0.000001 -0.000002 0.794507 20.339573 9.215596 4.063188 23.055512 40.625152 -0.000066 101.030949 0.000071 -35.668815 -18.789217 15.260864 20.470579 7.475563 18.843589 4.151725 -12.160908 -33.847979 -0.000001 0.000001 0.000004 -0.887044 1.427994 12.684530 1.917385 -3.767437 53.934326 -0.000000 -0.000000 0.000002 0.770921 -5.199593 54.618823 5.563870 -4.568229 101.238580 -0.000002 -0.000001 -0.000003 6.934467 -8.544248 63.908762 2.909297 -4.317413 67.934694 -0.000002 -0.000000 0.000001 8.373414 -8.171772 73.989923 2.173681 -3.940956 57.745397 -0.000001 0.000001 -0.000001 0.000002 0.000002 0.000001 -0.000000 0.000000 -0.000000 -0.000000 0.000001 -0.000000 -0.000000 0.000000 0.000000 -0.000000 0.000000 0.000000 -0.000000 0.000000 -0.000000 -0.000000 0.000001 -0.000000 -0.000000 0.000000 0.000000 -0.000000 0.000000 0.000000 -0.000000 0.000000 -0.000000 -0.000000 0.000001 -0.000000 -0.000000 -0.000000 0.000000 -0.000000 -0.000000 0.000000 -0.000000 -0.000000 0.000000 
